HIERARCHY
ROOT Hips
{
    OFFSET 0.000000 0.000000 0.000000
    CHANNELS 6 Xposition Yposition Zposition Zrotation Xrotation Yrotation
    JOINT Spine
    {
        OFFSET -0.000000 8.267054 0.000000
        CHANNELS 3 Zrotation Xrotation Yrotation
        JOINT Spine1
        {
            OFFSET -0.000000 23.684998 0.000000
            CHANNELS 3 Zrotation Xrotation Yrotation
            JOINT Neck
            {
                OFFSET -0.000000 23.587730 2.144339
                CHANNELS 3 Zrotation Xrotation Yrotation
                JOINT Head
                {
                    OFFSET -0.000000 14.114483 -2.016355
                    CHANNELS 3 Zrotation Xrotation Yrotation
                    End Site
                    {
                        OFFSET -0.000000 25.204432 0.000000
                    }
                }
            }
            JOINT LeftShoulder
            {
                OFFSET 4.070090 22.062094 -0.247321
                CHANNELS 3 Zrotation Xrotation Yrotation
                JOINT LeftArm
                {
                    OFFSET 10.395479 0.000000 0.000000
                    CHANNELS 3 Zrotation Xrotation Yrotation
                    JOINT LeftForeArm
                    {
                        OFFSET 37.713577 0.000000 0.000000
                        CHANNELS 3 Zrotation Xrotation Yrotation
                        JOINT LeftHand
                        {
                            OFFSET 20.284107 0.000000 0.000000
                            CHANNELS 3 Zrotation Xrotation Yrotation
                            End Site
                            {
                                OFFSET 15.122660 0.000000 0.000000
                            }
                        }
                    }
                }
            }
            JOINT RightShoulder
            {
                OFFSET -3.979272 22.062094 -0.247321
                CHANNELS 3 Zrotation Xrotation Yrotation
                JOINT RightArm
                {
                    OFFSET -10.395479 0.000000 0.000000
                    CHANNELS 3 Zrotation Xrotation Yrotation
                    JOINT RightForeArm
                    {
                        OFFSET -37.713577 0.000000 0.000000
                        CHANNELS 3 Zrotation Xrotation Yrotation
                        JOINT RightHand
                        {
                            OFFSET -20.284107 0.000000 0.000000
                            CHANNELS 3 Zrotation Xrotation Yrotation
                            End Site
                            {
                                OFFSET -15.122660 0.000000 0.000000
                            }
                        }
                    }
                }
            }
        }
    }
    JOINT LeftUpLeg
    {
        OFFSET 10.081773 0.000000 0.000000
        CHANNELS 3 Zrotation Xrotation Yrotation
        JOINT LeftLeg
        {
            OFFSET -0.000000 -36.382099 0.000000
            CHANNELS 3 Zrotation Xrotation Yrotation
            JOINT LeftFoot
            {
                OFFSET -0.000000 -49.182560 0.000000
                CHANNELS 3 Zrotation Xrotation Yrotation
                JOINT LeftToeBase
                {
                    OFFSET -0.000000 -6.553152 15.122660
                    CHANNELS 3 Zrotation Xrotation Yrotation
                    End Site
                    {
                        OFFSET -0.000000 0.000000 4.032709
                    }
                }
            }
        }
    }
    JOINT RightUpLeg
    {
        OFFSET -10.081773 0.000000 0.000000
        CHANNELS 3 Zrotation Xrotation Yrotation
        JOINT RightLeg
        {
            OFFSET -0.000000 -36.382099 0.000000
            CHANNELS 3 Zrotation Xrotation Yrotation
            JOINT RightFoot
            {
                OFFSET -0.000000 -49.182560 0.000000
                CHANNELS 3 Zrotation Xrotation Yrotation
                JOINT RightToeBase
                {
                    OFFSET -0.000000 -6.553152 15.122660
                    CHANNELS 3 Zrotation Xrotation Yrotation
                    End Site
                    {
                        OFFSET -0.000000 0.000000 4.032709
                    }
                }
            }
        }
    }
}
MOTION
Frames:    9
Frame Time:    0.008333
38.430424    91.562935    -69.800964    3.407638    -1.218228    -141.273285    -5.861753    -1.904690    -1.633894    -5.740719    3.395407    -1.366088    -2.120021    24.096972    -8.777905    12.121657    4.023662    -8.001800    6.495632    6.630705    -6.250511    -42.259396    26.235746    -18.367136    22.488541    -4.332797    -33.857121    43.906811    5.340310    6.793792    -6.992752    8.519119    -2.205338    74.085655    50.254517    6.822182    -0.569277    -9.557728    31.701643    -1.048238    -9.328053    -7.736729    -2.295580    -7.753024    -14.431387    9.788801    38.696625    -21.699358    5.730441    -8.248778    -8.389121    0.000000    0.000000    0.000000    -4.165869    -25.354954    4.226741    0.172547    20.536615    3.453152    9.919065    0.748206    -2.112520    0.000000    0.000000    0.000000    
38.365665    91.612076    -70.604301    3.422604    -0.983985    -140.941971    -5.712624    -1.879590    -1.607857    -5.735507    3.352414    -1.346102    -2.112972    24.128986    -8.747509    12.062197    4.102749    -7.984886    6.469362    6.730439    -6.226520    -42.415115    26.134916    -18.237047    22.411440    -4.257285    -33.828232    44.047390    5.330849    6.635812    -6.978100    8.488159    -2.130549    74.018875    50.307774    6.826608    -0.620900    -9.609518    31.696329    -1.023728    -9.366591    -7.789567    -2.146348    -8.060681    -14.251232    10.133974    39.916355    -21.490250    5.593291    -7.105351    -9.011816    0.000000    0.000000    0.000000    -3.865177    -25.058922    4.046756    0.276540    21.030548    3.283971    9.669623    0.877736    -1.958622    0.000000    0.000000    0.000000    
38.290127    91.663269    -71.402168    3.433259    -0.754574    -140.608002    -5.552302    -1.853616    -1.581655    -5.742599    3.296112    -1.326399    -2.107301    24.163992    -8.723549    12.004706    4.193157    -7.975737    6.443054    6.836482    -6.198677    -42.560688    26.061357    -18.118704    22.342743    -4.190540    -33.786938    44.195396    5.313361    6.479314    -6.965988    8.458374    -2.053739    73.952370    50.337608    6.817319    -0.678551    -9.666451    31.722765    -0.994339    -9.408696    -7.859941    -2.032501    -8.441255    -14.063295    10.511390    41.217991    -21.236967    5.453395    -5.877634    -9.666307    0.000000    0.000000    0.000000    -3.594862    -24.728390    3.827131    0.400645    21.479263    3.117287    9.379425    0.919751    -1.789945    0.000000    0.000000    0.000000    
38.204556    91.714523    -72.191223    3.440646    -0.529550    -140.270248    -5.380939    -1.827424    -1.554232    -5.759243    3.230704    -1.305834    -2.104682    24.196735    -8.707712    11.952188    4.296609    -7.976049    6.416083    6.943490    -6.167568    -42.693058    26.018635    -18.016415    22.282164    -4.131882    -33.731030    44.350880    5.287498    6.323221    -6.956729    8.429324    -1.978557    73.887108    50.334908    6.792619    -0.736848    -9.726051    31.785521    -0.968205    -9.452648    -7.942711    -1.950143    -8.889413    -13.863865    10.923428    42.587254    -20.951048    5.311691    -4.592046    -10.334982    0.000000    0.000000    0.000000    -3.350955    -24.362425    3.557856    0.533720    21.877649    2.971094    9.052844    0.876255    -1.603904    0.000000    0.000000    0.000000    
38.111248    91.763458    -72.957542    3.445812    -0.310283    -139.934174    -5.201594    -1.801731    -1.524240    -5.780862    3.162510    -1.282690    -2.106497    24.221363    -8.701702    11.907957    4.411687    -7.987003    6.387856    7.044595    -6.134863    -42.808807    26.007299    -17.934710    22.229027    -4.080922    -33.661160    44.511093    5.254130    6.169677    -6.950734    8.401011    -1.910465    73.822563    50.294262    6.754138    -0.789238    -9.785154    31.885401    -0.954710    -9.496524    -8.030535    -1.894139    -9.388898    -13.650895    11.365515    43.986748    -20.649847    5.170584    -3.299561    -10.987558    0.000000    0.000000    0.000000    -3.130381    -23.967197    3.240744    0.663932    22.218727    2.854559    8.705362    0.756341    -1.401881    0.000000    0.000000    0.000000    
38.006794    91.811035    -73.733215    3.449333    -0.084532    -139.587036    -5.007108    -1.775454    -1.487878    -5.804410    3.093931    -1.253369    -2.113596    24.236063    -8.706306    11.872734    4.540302    -8.009632    6.356896    7.139766    -6.101254    -42.913368    26.024305    -17.871389    22.178743    -4.034581    -33.575600    44.681770    5.212577    6.012747    -6.947480    8.371449    -1.849396    73.753555    50.211136    6.702172    -0.832791    -9.845064    32.025707    -0.962141    -9.541882    -8.120578    -1.855932    -9.950147    -13.409955    11.859818    45.460464    -20.334787    5.025059    -1.976816    -11.626826    0.000000    0.000000    0.000000    -2.916826    -23.526575    2.866753    0.790830    22.518593    2.758902    8.334831    0.565935    -1.173338    0.000000    0.000000    0.000000    
37.894573    91.854919    -74.491753    3.450475    0.143347    -139.243271    -4.804572    -1.748979    -1.443354    -5.825697    3.032111    -1.215661    -2.124816    24.238995    -8.722526    11.849294    4.673406    -8.043714    6.324776    7.222903    -6.070466    -43.004723    26.064991    -17.830309    22.130817    -3.993608    -33.479019    44.855476    5.165257    5.859336    -6.946124    8.340422    -1.799378    73.678864    50.087505    6.640278    -0.862053    -9.903523    32.200314    -0.998399    -9.587465    -8.203994    -1.831705    -10.544217    -13.142638    12.392287    46.945557    -20.028774    4.878382    -0.705042    -12.205278    0.000000    0.000000    0.000000    -2.712046    -23.054493    2.456711    0.907328    22.768133    2.677494    7.965469    0.319915    -0.921972    0.000000    0.000000    0.000000    
37.772663    91.895660    -75.247963    3.448262    0.380246    -138.899643    -4.591815    -1.721025    -1.387245    -5.842252    2.979421    -1.166221    -2.138509    24.231127    -8.750827    11.837861    4.806886    -8.089147    6.292033    7.294173    -6.044509    -43.087570    26.123440    -17.810373    22.081858    -3.955827    -33.372818    45.032166    5.113438    5.709071    -6.944755    8.305937    -1.759728    73.592850    49.925652    6.570081    -0.876668    -9.962051    32.406284    -1.067055    -9.634674    -8.276925    -1.815973    -11.170279    -12.838960    12.975036    48.455753    -19.739218    4.728227    0.501968    -12.708201    0.000000    0.000000    0.000000    -2.507592    -22.543934    2.016525    1.016402    22.976883    2.593996    7.600406    0.026658    -0.640270    0.000000    0.000000    0.000000    
37.646889    91.931549    -75.968826    3.442095    0.616696    -138.573624    -4.380147    -1.691548    -1.320658    -5.851478    2.938948    -1.105789    -2.152066    24.215071    -8.789285    11.838980    4.928353    -8.142496    6.261019    7.350822    -6.026335    -43.161331    26.189960    -17.811676    22.032343    -3.921813    -33.265446    45.199970    5.061726    5.571308    -6.941839    8.268302    -1.731611    73.495880    49.740379    6.498058    -0.877576    -10.018809    32.625660    -1.164214    -9.681923    -8.332180    -1.805290    -11.791370    -12.511215    13.577982    49.912685    -19.483727    4.584949    1.553261    -13.096386    0.000000    0.000000    0.000000    -2.310318    -22.021069    1.579496    1.116561    23.141321    2.499753    7.262256    -0.289715    -0.341629    0.000000    0.000000    0.000000    
